<svg version="1.1" id="Layer_1" xmlns="http://www.w3.org/2000/svg" xmlns:xlink="http://www.w3.org/1999/xlink" x="0px" y="0px"
	 width="100%" viewBox="0 0 1012 1012" enable-background="new 0 0 1012 1012" xml:space="preserve">
<path fill="#FFFFFF" opacity="1.000000" stroke="none" 
	d="
M1.000000,344.000000 
	C1.000000,229.333344 1.000000,115.166695 1.000000,1.000031 
	C338.333282,1.000021 675.666565,1.000021 1012.999878,1.000010 
	C1012.999878,338.333221 1012.999878,675.666443 1012.999939,1012.999756 
	C675.666809,1012.999878 338.333588,1012.999878 1.000201,1012.999939 
	C1.000000,790.166687 1.000000,567.333313 1.000000,344.000000 
M924.995544,616.128418 
	C924.995544,601.872314 924.995544,587.616150 924.995544,573.367310 
	C910.063049,573.367310 895.559082,573.367310 881.342407,573.367310 
	C881.342407,588.124023 881.342407,602.512573 881.342407,616.931519 
	C896.149658,616.931519 910.614624,616.931519 925.005615,617.874878 
	C925.005615,646.788696 925.005615,675.702515 925.005615,704.635498 
	C939.921021,704.635498 954.431152,704.635498 968.672058,704.635498 
	C968.672058,675.224731 968.672058,646.178955 968.672058,617.073364 
	C953.875366,617.073364 939.406372,617.073364 924.995544,616.128418 
M440.130585,617.004883 
	C425.727142,617.026123 411.323730,617.047363 396.994385,616.125244 
	C396.994385,601.854309 396.994385,587.583435 396.994385,572.930420 
	C367.462189,572.930420 338.397400,572.930420 309.225952,572.930420 
	C309.225952,558.141663 309.225952,543.741028 309.225952,528.947388 
	C323.851227,528.947388 338.255829,528.947388 352.779053,528.947388 
	C352.779053,514.151794 352.779053,499.751221 352.779053,484.957367 
	C338.159119,484.957367 323.754181,484.957367 309.215942,484.957367 
	C309.215942,470.161987 309.215942,455.761444 309.215942,440.967346 
	C323.830627,440.967346 338.235840,440.967346 352.789032,440.967346 
	C352.789032,426.172119 352.789032,411.771606 352.789032,397.201477 
	C323.515442,397.201477 294.452942,397.201477 265.003296,397.201477 
	C265.003296,426.464294 265.003296,455.529083 265.003296,484.640808 
	C235.433914,484.640808 206.253250,484.640808 176.687866,484.640808 
	C176.687866,455.217499 176.687866,426.152740 176.687866,397.333221 
	C132.574844,397.333221 88.849518,397.333221 45.316746,397.333221 
	C45.316746,441.392090 45.316746,485.117249 45.316746,529.079651 
	C60.111450,529.079651 74.590012,529.079651 88.999908,529.006287 
	C88.999908,529.006287 88.926704,528.937500 88.994820,529.880493 
	C89.020981,544.274475 89.047142,558.668518 88.128448,573.004456 
	C73.872330,573.004456 59.616207,573.004456 45.367310,573.004456 
	C45.367310,587.936890 45.367310,602.440857 45.367310,616.657593 
	C60.124058,616.657593 74.512619,616.657593 88.931427,616.657593 
	C88.931427,601.850281 88.931427,587.385315 89.874779,572.994385 
	C133.605988,573.022766 177.337189,573.051147 220.999756,573.006104 
	C220.999756,573.006104 220.926514,572.937317 220.994812,573.880371 
	C220.994812,588.139832 220.994812,602.399292 220.994812,616.926758 
	C279.985687,616.926758 338.524078,616.926758 397.004486,617.871582 
	C397.004486,632.231323 397.004486,646.591064 397.004486,660.931030 
	C412.180450,660.931030 426.628143,660.931030 441.005341,661.874695 
	C441.028015,676.270691 441.050659,690.666687 440.128418,705.004456 
	C425.872314,705.004456 411.616211,705.004456 397.367249,705.004456 
	C397.367249,719.936890 397.367249,734.440857 397.367249,748.657654 
	C412.123962,748.657654 426.512512,748.657654 440.931458,748.657654 
	C440.931458,733.850464 440.931458,719.385498 441.874817,704.994385 
	C470.788666,704.994385 499.702515,704.994385 528.635498,704.994385 
	C528.635498,719.921021 528.635498,734.431152 528.635498,749.316345 
	C513.876160,749.316345 499.480621,749.316345 485.073334,749.316345 
	C485.073334,778.818970 485.073334,807.940857 484.128418,837.004456 
	C455.207977,837.004456 426.287537,837.004456 397.345764,837.004456 
	C397.345764,881.250061 397.345764,925.074890 397.345764,968.665527 
	C412.089966,968.665527 426.487091,968.665527 441.260925,968.665527 
	C441.260925,953.934021 441.260925,939.534912 441.260925,924.926758 
	C456.118042,924.926758 470.590240,924.926758 485.004486,925.871582 
	C485.004486,940.127686 485.004486,954.383850 485.004486,968.632690 
	C499.936951,968.632690 514.440918,968.632690 528.657593,968.632690 
	C528.657593,953.875854 528.657593,939.487305 528.657593,925.068604 
	C513.850281,925.068604 499.385284,925.068604 484.994385,924.125244 
	C484.973419,895.057007 484.952454,865.988770 485.874817,836.994385 
	C500.144684,836.994385 514.414551,836.994385 529.072021,836.994385 
	C529.072021,822.128601 529.072021,807.724976 529.072021,792.961426 
	C587.846924,792.961426 646.230469,792.961426 705.005127,792.961426 
	C705.005127,778.196899 705.005127,763.792847 705.005127,748.843140 
	C749.236938,748.843140 793.079346,748.843140 837.308533,748.843140 
	C837.308533,733.888062 837.308533,719.484009 837.308533,704.699463 
	C852.103821,704.699463 866.507996,704.699463 880.657349,704.699463 
	C880.657349,689.903198 880.657349,675.501099 880.657349,660.715454 
	C865.912415,660.715454 851.508240,660.715454 836.723389,660.715454 
	C836.723389,645.920471 836.723389,631.516357 836.723389,617.322205 
	C807.268372,617.322205 778.206787,617.322205 748.756348,617.322205 
	C748.756348,632.045959 748.756348,646.450134 748.756348,660.920410 
	C733.886414,660.920410 719.408997,660.920410 705.000183,660.993713 
	C705.000183,660.993713 705.073364,661.062561 705.005188,660.119507 
	C704.980469,631.054382 704.955750,601.989258 705.874695,572.994629 
	C749.559814,572.994629 793.244995,572.994629 837.307007,572.994629 
	C837.307007,557.885620 837.307007,543.489746 837.307007,528.724976 
	C852.081848,528.724976 866.477722,528.724976 880.926758,528.724976 
	C880.926758,513.875427 880.926758,499.406464 881.871582,484.995514 
	C896.139038,484.995514 910.406494,484.995514 925.057861,484.995514 
	C925.057861,499.858429 925.057861,514.259216 925.057861,528.784668 
	C939.844177,528.784668 954.241028,528.784668 968.641113,528.784668 
	C968.641113,484.736816 968.641113,440.905304 968.641113,397.338440 
	C939.225098,397.338440 910.168579,397.338440 881.068604,397.338440 
	C881.068604,426.811096 881.068604,455.945404 880.125244,485.005615 
	C865.858582,485.005615 851.591919,485.005615 836.941956,485.005615 
	C836.941956,470.141144 836.941956,455.740875 836.941956,440.959351 
	C822.159119,440.959351 807.758301,440.959351 792.976685,440.959351 
	C792.976685,426.176788 792.976685,411.775787 792.976685,396.870453 
	C719.443359,396.870453 646.296326,396.870453 572.926758,396.870453 
	C572.926758,381.885376 572.926758,367.411469 573.871582,352.995514 
	C588.127686,352.995514 602.383850,352.995514 616.632690,352.995514 
	C616.632690,338.063110 616.632690,323.559143 616.632690,309.342407 
	C601.875854,309.342407 587.487305,309.342407 573.068604,309.342407 
	C573.068604,324.149719 573.068604,338.614716 572.125244,353.005615 
	C557.858582,353.005615 543.591919,353.005615 528.955200,353.005615 
	C528.955200,323.482941 528.955200,294.426605 528.955200,265.201172 
	C514.183716,265.201172 499.787354,265.201172 484.839722,265.201172 
	C484.839722,294.573975 484.839722,323.750549 484.839722,352.652832 
	C469.887848,352.652832 455.488586,352.652832 440.926514,352.652832 
	C440.926514,308.516266 440.926514,264.726776 441.871429,220.995499 
	C456.142822,220.995499 470.414185,220.995499 485.074524,220.995499 
	C485.074524,206.126633 485.074524,191.721680 485.074524,177.231750 
	C499.870239,177.231750 514.270813,177.231750 529.064087,177.231750 
	C529.064087,191.862808 529.064087,206.267395 529.064087,221.058929 
	C543.857605,221.058929 558.261780,221.058929 573.053711,221.058929 
	C573.053711,235.852066 573.053711,250.256836 573.053711,264.778687 
	C587.849121,264.778687 602.249634,264.778687 616.788330,264.778687 
	C616.788330,235.494675 616.788330,206.432281 616.788330,176.976105 
	C602.178284,176.976105 587.773071,176.976105 573.206421,176.976105 
	C573.206421,162.181198 573.206421,147.780777 573.206421,132.986511 
	C587.811157,132.986511 602.216370,132.986511 616.805908,132.986511 
	C616.805908,103.529976 616.805908,74.467613 616.805908,45.339832 
	C543.445190,45.339832 470.279083,45.339832 397.330139,45.339832 
	C397.330139,74.743881 397.330139,103.807381 397.330139,133.260895 
	C412.063080,133.260895 426.468170,133.260895 441.068390,133.260895 
	C441.068390,162.796356 441.068390,191.937897 440.125031,221.005615 
	C425.858459,221.005615 411.591888,221.005615 397.345520,221.005615 
	C397.345520,294.608765 397.345520,367.753723 397.345520,441.271973 
	C426.746277,441.271973 455.802338,441.271973 485.075867,441.271973 
	C485.075867,456.120270 485.075867,470.594635 484.130554,485.004883 
	C469.873077,485.004883 455.615601,485.004883 441.075836,485.004883 
	C441.075836,529.310303 441.075836,573.189636 440.130585,617.004883 
M749.874878,924.994385 
	C764.145142,924.994385 778.415344,924.994385 793.073730,924.994385 
	C793.073730,910.127136 793.073730,895.722839 793.073730,880.957031 
	C851.850647,880.957031 910.235657,880.957031 968.797241,880.957031 
	C968.797241,866.187561 968.797241,851.787720 968.797241,836.841919 
	C910.092957,836.841919 851.588928,836.841919 792.696045,836.841919 
	C792.696045,821.892822 792.696045,807.488342 792.696045,793.345215 
	C777.898804,793.345215 763.496277,793.345215 748.709839,793.345215 
	C748.709839,808.093079 748.709839,822.497620 748.709839,837.275269 
	C719.254089,837.275269 690.190613,837.275269 661.326843,837.275269 
	C661.326843,852.064148 661.326843,866.466064 661.326843,881.245483 
	C690.715942,881.245483 719.779419,881.245483 749.073364,881.245483 
	C749.073364,896.107605 749.073364,910.585083 748.128418,925.004456 
	C719.212708,925.004456 690.296997,925.004456 661.367310,925.004456 
	C661.367310,939.923767 661.367310,954.434143 661.367310,968.667358 
	C690.782166,968.667358 719.829285,968.667358 748.931519,968.667358 
	C748.931519,953.863342 748.931519,939.391907 749.874878,924.994385 
M125.500000,353.000000 
	C201.259750,353.000000 277.019501,353.000000 352.714325,353.000000 
	C352.714325,250.026123 352.714325,147.623810 352.714325,45.285683 
	C250.026093,45.285683 147.623795,45.285683 45.285690,45.285683 
	C45.285690,147.973923 45.285690,250.376221 45.285690,353.000000 
	C71.880508,353.000000 98.190254,353.000000 125.500000,353.000000 
M142.500000,969.000000 
	C212.593292,969.000000 282.686584,969.000000 352.714081,969.000000 
	C352.714081,866.025635 352.714081,763.623352 352.714081,661.285950 
	C250.025604,661.285950 147.623306,661.285950 45.285934,661.285950 
	C45.285934,763.974426 45.285934,866.376709 45.285934,969.000000 
	C77.547577,969.000000 109.523788,969.000000 142.500000,969.000000 
M879.500000,353.000000 
	C909.261841,353.000000 939.023682,353.000000 968.712280,353.000000 
	C968.712280,250.022064 968.712280,147.619766 968.712280,45.287682 
	C866.022095,45.287682 763.619751,45.287682 661.287720,45.287682 
	C661.287720,147.977921 661.287720,250.380203 661.287720,353.000000 
	C733.883423,353.000000 806.191711,353.000000 879.500000,353.000000 
M892.517212,749.000000 
	C888.746399,749.000000 884.975647,749.000000 881.282349,749.000000 
	C881.282349,763.968811 881.282349,778.372253 881.282349,792.717102 
	C895.969910,792.717102 910.373291,792.717102 924.716553,792.717102 
	C924.716553,778.029053 924.716553,763.625671 924.716553,749.000000 
	C914.126770,749.000000 903.818909,749.000000 892.517212,749.000000 
M941.501831,969.000000 
	C950.598511,969.000000 959.695251,969.000000 968.713013,969.000000 
	C968.713013,954.021240 968.713013,939.617981 968.713013,925.287109 
	C954.020996,925.287109 939.617798,925.287109 925.287231,925.287109 
	C925.287231,939.979187 925.287231,954.382385 925.287231,969.000000 
	C930.549561,969.000000 935.526428,969.000000 941.501831,969.000000 
M584.517212,881.000000 
	C580.751526,881.000000 576.985901,881.000000 573.247009,881.000000 
	C573.247009,895.934692 573.247009,910.319031 573.247009,924.780396 
	C587.878967,924.780396 602.263000,924.780396 616.999390,924.780396 
	C616.999390,911.157776 617.051208,897.751099 616.899902,884.346802 
	C616.887939,883.289124 615.463989,882.247314 614.696289,881.198181 
	C611.897095,883.469299 609.285950,880.670410 606.458069,880.853027 
	C599.501587,881.302429 592.496582,881.000000 584.517212,881.000000 
z"/>
<path fill="#000000" opacity="1.000000" stroke="none" 
	d="
M440.926514,220.937302 
	C440.926514,264.726776 440.926514,308.516266 440.926514,352.652832 
	C455.488586,352.652832 469.887848,352.652832 484.839722,352.652832 
	C484.839722,323.750549 484.839722,294.573975 484.839722,265.201172 
	C499.787354,265.201172 514.183716,265.201172 528.955200,265.201172 
	C528.955200,294.426605 528.955200,323.482941 528.955200,353.005615 
	C543.591919,353.005615 557.858582,353.005615 572.562622,353.005981 
	C572.999939,353.006348 572.926758,352.937531 572.926758,352.937531 
	C572.926758,367.411469 572.926758,381.885376 572.926758,396.870453 
	C646.296326,396.870453 719.443359,396.870453 792.976685,396.870453 
	C792.976685,411.775787 792.976685,426.176788 792.976685,440.959351 
	C807.758301,440.959351 822.159119,440.959351 836.941956,440.959351 
	C836.941956,455.740875 836.941956,470.141144 836.941956,485.005615 
	C851.591919,485.005615 865.858582,485.005615 880.562622,485.005981 
	C880.999939,485.006348 880.926758,484.937531 880.926758,484.937531 
	C880.926758,499.406464 880.926758,513.875427 880.926758,528.724976 
	C866.477722,528.724976 852.081848,528.724976 837.307007,528.724976 
	C837.307007,543.489746 837.307007,557.885620 837.307007,572.994629 
	C793.244995,572.994629 749.559814,572.994629 705.437378,572.996094 
	C705.000000,572.997559 705.069946,573.069946 705.037476,572.597839 
	C705.005005,557.858704 705.005005,543.591614 705.005005,528.940552 
	C690.140015,528.940552 675.739197,528.940552 661.216003,528.940552 
	C661.216003,514.154419 661.216003,499.757538 661.216003,484.972809 
	C675.826965,484.972809 690.228149,484.972809 704.800110,484.972809 
	C704.800110,470.187134 704.800110,455.790344 704.800110,441.330627 
	C646.110168,441.330627 587.620728,441.330627 528.743530,441.330627 
	C528.743530,456.060211 528.743530,470.461243 528.743530,484.930054 
	C513.880066,484.930054 499.405060,484.930054 484.966248,484.965088 
	C485.002441,485.000092 485.075867,485.069031 485.075867,485.069031 
	C485.075867,470.594635 485.075867,456.120270 485.075867,441.271973 
	C455.802338,441.271973 426.746277,441.271973 397.345520,441.271973 
	C397.345520,367.753723 397.345520,294.608765 397.345520,221.005615 
	C411.591888,221.005615 425.858459,221.005615 440.562378,221.005859 
	C440.999725,221.006104 440.926514,220.937302 440.926514,220.937302 
z"/>
<path fill="#000000" opacity="1.000000" stroke="none" 
	d="
M704.965515,572.960815 
	C704.955750,601.989258 704.980469,631.054382 704.566772,660.562012 
	C689.872314,661.004456 675.616150,661.004456 661.367310,661.004456 
	C661.367310,675.936951 661.367310,690.440918 661.367310,704.657593 
	C676.124023,704.657593 690.512573,704.657593 704.931519,704.657593 
	C704.931519,689.850342 704.931519,675.385376 704.931519,660.920410 
	C719.408997,660.920410 733.886414,660.920410 748.756348,660.920410 
	C748.756348,646.450134 748.756348,632.045959 748.756348,617.322205 
	C778.206787,617.322205 807.268372,617.322205 836.723389,617.322205 
	C836.723389,631.516357 836.723389,645.920471 836.723389,660.715454 
	C851.508240,660.715454 865.912415,660.715454 880.657349,660.715454 
	C880.657349,675.501099 880.657349,689.903198 880.657349,704.699463 
	C866.507996,704.699463 852.103821,704.699463 837.308533,704.699463 
	C837.308533,719.484009 837.308533,733.888062 837.308533,748.843140 
	C793.079346,748.843140 749.236938,748.843140 705.005127,748.843140 
	C705.005127,763.792847 705.005127,778.196899 705.005127,792.961426 
	C646.230469,792.961426 587.846924,792.961426 529.072021,792.961426 
	C529.072021,807.724976 529.072021,822.128601 529.072021,836.994385 
	C514.414551,836.994385 500.144684,836.994385 485.437439,836.994141 
	C485.000092,836.993835 485.073334,837.062683 485.073334,837.062683 
	C485.073334,807.940857 485.073334,778.818970 485.073334,749.316345 
	C499.480621,749.316345 513.876160,749.316345 528.635498,749.316345 
	C528.635498,734.431152 528.635498,719.921021 528.635498,704.994385 
	C499.702515,704.994385 470.788666,704.994385 441.437439,704.994141 
	C441.000092,704.993835 441.073334,705.062683 441.073334,705.062683 
	C441.050659,690.666687 441.028015,676.270691 441.003845,661.437317 
	C441.002380,660.999939 440.930054,661.069946 441.402161,661.037476 
	C456.232880,661.004944 470.591553,661.004944 485.069946,661.004944 
	C485.069946,645.822510 485.069946,631.376282 485.034973,616.965027 
	C485.000000,617.000000 484.930054,617.069946 485.402161,617.037476 
	C514.788696,617.004944 543.703125,617.004944 573.173340,617.004944 
	C573.173340,631.918335 573.173340,646.437256 573.173340,660.650024 
	C588.126892,660.650024 602.521851,660.650024 617.079590,660.650024 
	C617.079590,631.177307 617.079590,602.054382 617.042969,572.965820 
	C617.006287,573.000183 616.937439,573.073364 617.408936,573.039307 
	C646.943665,573.026794 676.006775,573.048340 705.069946,573.069946 
	C705.069946,573.069946 705.000000,572.997559 704.965515,572.960815 
M596.499878,705.000000 
	C588.735413,705.000000 580.970886,705.000000 573.286621,705.000000 
	C573.286621,719.978149 573.286621,734.381287 573.286621,748.713379 
	C587.978149,748.713379 602.381287,748.713379 616.713379,748.713379 
	C616.713379,734.021851 616.713379,719.618713 616.713379,705.000000 
	C610.118774,705.000000 603.809204,705.000000 596.499878,705.000000 
z"/>
<path fill="#000000" opacity="1.000000" stroke="none" 
	d="
M125.000000,353.000000 
	C98.190254,353.000000 71.880508,353.000000 45.285690,353.000000 
	C45.285690,250.376221 45.285690,147.973923 45.285690,45.285683 
	C147.623795,45.285683 250.026093,45.285683 352.714325,45.285683 
	C352.714325,147.623810 352.714325,250.026123 352.714325,353.000000 
	C277.019501,353.000000 201.259750,353.000000 125.000000,353.000000 
M89.746384,89.056877 
	C89.497589,90.626656 89.031975,92.196312 89.031166,93.766220 
	C88.995148,163.931458 89.000000,234.096710 89.000000,304.261963 
	C89.000000,305.715698 89.000000,307.169434 89.000000,308.792358 
	C162.480362,308.792358 235.551086,308.792358 308.789490,308.792358 
	C308.789490,235.513901 308.789490,162.443176 308.789490,89.003929 
	C235.957718,89.003929 163.335785,89.003929 89.746384,89.056877 
z"/>
<path fill="#000000" opacity="1.000000" stroke="none" 
	d="
M142.000000,969.000000 
	C109.523788,969.000000 77.547577,969.000000 45.285934,969.000000 
	C45.285934,866.376709 45.285934,763.974426 45.285934,661.285950 
	C147.623306,661.285950 250.025604,661.285950 352.714081,661.285950 
	C352.714081,763.623352 352.714081,866.025635 352.714081,969.000000 
	C282.686584,969.000000 212.593292,969.000000 142.000000,969.000000 
M309.000000,914.476868 
	C309.000000,844.719299 309.000000,774.961792 309.000000,705.294800 
	C235.342285,705.294800 162.272614,705.294800 89.295700,705.294800 
	C89.295700,778.659546 89.295700,851.729248 89.295700,924.703369 
	C162.661392,924.703369 235.731033,924.703369 309.000000,924.703369 
	C309.000000,921.427612 309.000000,918.446960 309.000000,914.476868 
z"/>
<path fill="#000000" opacity="1.000000" stroke="none" 
	d="
M879.000000,353.000000 
	C806.191711,353.000000 733.883423,353.000000 661.287720,353.000000 
	C661.287720,250.380203 661.287720,147.977921 661.287720,45.287682 
	C763.619751,45.287682 866.022095,45.287682 968.712280,45.287682 
	C968.712280,147.619766 968.712280,250.022064 968.712280,353.000000 
	C939.023682,353.000000 909.261841,353.000000 879.000000,353.000000 
M908.498413,309.000000 
	C913.930298,309.000000 919.362183,309.000000 924.711914,309.000000 
	C924.711914,235.354431 924.711914,162.285385 924.711914,89.288132 
	C851.354370,89.288132 778.285339,89.288132 705.288208,89.288132 
	C705.288208,162.645676 705.288208,235.714706 705.288208,309.000000 
	C772.883667,309.000000 840.191223,309.000000 908.498413,309.000000 
z"/>
<path fill="#000000" opacity="1.000000" stroke="none" 
	d="
M89.073296,573.062500 
	C89.047142,558.668518 89.020981,544.274475 89.433182,529.437988 
	C104.134407,528.995544 118.397255,528.995544 132.632690,528.995544 
	C132.632690,499.385620 132.632690,470.221924 132.632690,441.352112 
	C117.869255,441.352112 103.474045,441.352112 89.068573,441.352112 
	C89.068573,470.829346 89.068573,499.954498 89.068573,529.079651 
	C74.590012,529.079651 60.111450,529.079651 45.316746,529.079651 
	C45.316746,485.117249 45.316746,441.392090 45.316746,397.333221 
	C88.849518,397.333221 132.574844,397.333221 176.687866,397.333221 
	C176.687866,426.152740 176.687866,455.217499 176.687866,484.640808 
	C206.253250,484.640808 235.433914,484.640808 265.003296,484.640808 
	C265.003296,455.529083 265.003296,426.464294 265.003296,397.201477 
	C294.452942,397.201477 323.515442,397.201477 352.789032,397.201477 
	C352.789032,411.771606 352.789032,426.172119 352.789032,440.967346 
	C338.235840,440.967346 323.830627,440.967346 309.215942,440.967346 
	C309.215942,455.761444 309.215942,470.161987 309.215942,484.957367 
	C323.754181,484.957367 338.159119,484.957367 352.779053,484.957367 
	C352.779053,499.751221 352.779053,514.151794 352.779053,528.947388 
	C338.255829,528.947388 323.851227,528.947388 309.225952,528.947388 
	C309.225952,543.741028 309.225952,558.141663 309.225952,572.930420 
	C338.397400,572.930420 367.462189,572.930420 396.994385,572.930420 
	C396.994385,587.583435 396.994385,601.854309 396.994019,616.562622 
	C396.993652,616.999939 397.062469,616.926758 397.062469,616.926758 
	C338.524078,616.926758 279.985687,616.926758 220.994812,616.926758 
	C220.994812,602.399292 220.994812,588.139832 221.433136,573.437988 
	C236.127579,572.995544 250.383713,572.995544 264.632751,572.995544 
	C264.632751,558.063171 264.632751,543.559143 264.632751,529.342346 
	C249.876083,529.342346 235.487518,529.342346 221.068390,529.342346 
	C221.068390,544.149536 221.068390,558.614502 221.068390,573.079468 
	C177.337189,573.051147 133.605988,573.022766 89.437439,572.994019 
	C89.000092,572.993713 89.073296,573.062500 89.073296,573.062500 
z"/>
<path fill="#000000" opacity="1.000000" stroke="none" 
	d="
M441.034058,221.042786 
	C441.068390,191.937897 441.068390,162.796356 441.068390,133.260895 
	C426.468170,133.260895 412.063080,133.260895 397.330139,133.260895 
	C397.330139,103.807381 397.330139,74.743881 397.330139,45.339832 
	C470.279083,45.339832 543.445190,45.339832 616.805908,45.339832 
	C616.805908,74.467613 616.805908,103.529976 616.805908,132.986511 
	C602.216370,132.986511 587.811157,132.986511 573.206421,132.986511 
	C573.206421,147.780777 573.206421,162.181198 573.206421,176.976105 
	C587.773071,176.976105 602.178284,176.976105 616.788330,176.976105 
	C616.788330,206.432281 616.788330,235.494675 616.788330,264.778687 
	C602.249634,264.778687 587.849121,264.778687 573.053711,264.778687 
	C573.053711,250.256836 573.053711,235.852066 573.053711,221.058929 
	C558.261780,221.058929 543.857605,221.058929 529.064087,221.058929 
	C529.064087,206.267395 529.064087,191.862808 529.064087,177.231750 
	C514.270813,177.231750 499.870239,177.231750 485.074524,177.231750 
	C485.074524,191.721680 485.074524,206.126633 485.074524,220.995499 
	C470.414185,220.995499 456.142822,220.995499 441.398987,220.966400 
	C440.926514,220.937302 440.999725,221.006104 441.034058,221.042786 
M485.000000,113.499588 
	C485.000000,119.930573 485.000000,126.361549 485.000000,132.713150 
	C499.978607,132.713150 514.381714,132.713150 528.713135,132.713150 
	C528.713135,118.021370 528.713135,103.618248 528.713135,89.286835 
	C514.021423,89.286835 499.618256,89.286835 485.000000,89.286835 
	C485.000000,97.214798 485.000000,104.857323 485.000000,113.499588 
z"/>
<path fill="#000000" opacity="1.000000" stroke="none" 
	d="
M749.073364,925.062561 
	C749.073364,910.585083 749.073364,896.107605 749.073364,881.245483 
	C719.779419,881.245483 690.715942,881.245483 661.326843,881.245483 
	C661.326843,866.466064 661.326843,852.064148 661.326843,837.275269 
	C690.190613,837.275269 719.254089,837.275269 748.709839,837.275269 
	C748.709839,822.497620 748.709839,808.093079 748.709839,793.345215 
	C763.496277,793.345215 777.898804,793.345215 792.696045,793.345215 
	C792.696045,807.488342 792.696045,821.892822 792.696045,836.841919 
	C851.588928,836.841919 910.092957,836.841919 968.797241,836.841919 
	C968.797241,851.787720 968.797241,866.187561 968.797241,880.957031 
	C910.235657,880.957031 851.850647,880.957031 793.073730,880.957031 
	C793.073730,895.722839 793.073730,910.127136 793.073730,924.994385 
	C778.415344,924.994385 764.145142,924.994385 749.437500,924.994019 
	C749.000183,924.993713 749.073364,925.062561 749.073364,925.062561 
z"/>
<path fill="#000000" opacity="1.000000" stroke="none" 
	d="
M484.965759,836.957153 
	C484.952454,865.988770 484.973419,895.057007 484.994019,924.562622 
	C484.993652,924.999939 485.062469,924.926758 485.062469,924.926758 
	C470.590240,924.926758 456.118042,924.926758 441.260925,924.926758 
	C441.260925,939.534912 441.260925,953.934021 441.260925,968.665527 
	C426.487091,968.665527 412.089966,968.665527 397.345764,968.665527 
	C397.345764,925.074890 397.345764,881.250061 397.345764,837.004456 
	C426.287537,837.004456 455.207977,837.004456 484.600891,837.033569 
	C485.073334,837.062683 485.000092,836.993835 484.965759,836.957153 
z"/>
<path fill="#000000" opacity="1.000000" stroke="none" 
	d="
M881.034302,485.043030 
	C881.068604,455.945404 881.068604,426.811096 881.068604,397.338440 
	C910.168579,397.338440 939.225098,397.338440 968.641113,397.338440 
	C968.641113,440.905304 968.641113,484.736816 968.641113,528.784668 
	C954.241028,528.784668 939.844177,528.784668 925.057861,528.784668 
	C925.057861,514.259216 925.057861,499.858429 925.057861,484.995514 
	C910.406494,484.995514 896.139038,484.995514 881.399170,484.966522 
	C880.926758,484.937531 880.999939,485.006348 881.034302,485.043030 
z"/>
<path fill="#000000" opacity="1.000000" stroke="none" 
	d="
M441.075836,617.069031 
	C441.075836,573.189636 441.075836,529.310303 441.075836,485.004883 
	C455.615601,485.004883 469.873077,485.004883 484.603210,485.036957 
	C485.075867,485.069031 485.002441,485.000092 484.998749,485.437195 
	C484.973389,529.606201 484.951721,573.338074 484.930054,617.069946 
	C484.930054,617.069946 485.000000,617.000000 484.562836,616.997559 
	C469.727142,616.973450 455.328583,616.951782 440.966217,616.965088 
	C441.002380,617.000061 441.075836,617.069031 441.075836,617.069031 
z"/>
<path fill="#000000" opacity="1.000000" stroke="none" 
	d="
M748.965820,924.957031 
	C748.931519,939.391907 748.931519,953.863342 748.931519,968.667358 
	C719.829285,968.667358 690.782166,968.667358 661.367310,968.667358 
	C661.367310,954.434143 661.367310,939.923767 661.367310,925.004456 
	C690.296997,925.004456 719.212708,925.004456 748.600891,925.033508 
	C749.073364,925.062561 749.000183,924.993713 748.965820,924.957031 
z"/>
<path fill="#000000" opacity="1.000000" stroke="none" 
	d="
M924.937439,617.073364 
	C939.406372,617.073364 953.875366,617.073364 968.672058,617.073364 
	C968.672058,646.178955 968.672058,675.224731 968.672058,704.635498 
	C954.431152,704.635498 939.921021,704.635498 925.005615,704.635498 
	C925.005615,675.702515 925.005615,646.788696 925.005981,617.437500 
	C925.006287,617.000183 924.937439,617.073364 924.937439,617.073364 
z"/>
<path fill="#000000" opacity="1.000000" stroke="none" 
	d="
M484.956970,925.034302 
	C499.385284,925.068604 513.850281,925.068604 528.657593,925.068604 
	C528.657593,939.487305 528.657593,953.875854 528.657593,968.632690 
	C514.440918,968.632690 499.936951,968.632690 485.004486,968.632690 
	C485.004486,954.383850 485.004486,940.127686 485.033478,925.399170 
	C485.062469,924.926758 484.993652,924.999939 484.956970,925.034302 
z"/>
<path fill="#000000" opacity="1.000000" stroke="none" 
	d="
M893.014160,749.000000 
	C903.818909,749.000000 914.126770,749.000000 924.716553,749.000000 
	C924.716553,763.625671 924.716553,778.029053 924.716553,792.717102 
	C910.373291,792.717102 895.969910,792.717102 881.282349,792.717102 
	C881.282349,778.372253 881.282349,763.968811 881.282349,749.000000 
	C884.975647,749.000000 888.746399,749.000000 893.014160,749.000000 
z"/>
<path fill="#000000" opacity="1.000000" stroke="none" 
	d="
M941.002563,969.000000 
	C935.526428,969.000000 930.549561,969.000000 925.287231,969.000000 
	C925.287231,954.382385 925.287231,939.979187 925.287231,925.287109 
	C939.617798,925.287109 954.020996,925.287109 968.713013,925.287109 
	C968.713013,939.617981 968.713013,954.021240 968.713013,969.000000 
	C959.695251,969.000000 950.598511,969.000000 941.002563,969.000000 
z"/>
<path fill="#000000" opacity="1.000000" stroke="none" 
	d="
M440.965759,704.957153 
	C440.931458,719.385498 440.931458,733.850464 440.931458,748.657654 
	C426.512512,748.657654 412.123962,748.657654 397.367249,748.657654 
	C397.367249,734.440857 397.367249,719.936890 397.367249,705.004456 
	C411.616211,705.004456 425.872314,705.004456 440.600891,705.033569 
	C441.073334,705.062683 441.000092,704.993835 440.965759,704.957153 
z"/>
<path fill="#000000" opacity="1.000000" stroke="none" 
	d="
M396.956970,617.034302 
	C411.323730,617.047363 425.727142,617.026123 440.603210,617.036987 
	C441.075836,617.069031 441.002380,617.000061 440.998718,617.437134 
	C440.973419,632.272827 440.951752,646.671387 440.930054,661.069946 
	C440.930054,661.069946 441.002380,660.999939 441.039124,660.965454 
	C426.628143,660.931030 412.180450,660.931030 397.004486,660.931030 
	C397.004486,646.591064 397.004486,632.231323 397.033478,617.399170 
	C397.062469,616.926758 396.993652,616.999939 396.956970,617.034302 
z"/>
<path fill="#000000" opacity="1.000000" stroke="none" 
	d="
M925.042969,616.965820 
	C910.614624,616.931519 896.149658,616.931519 881.342407,616.931519 
	C881.342407,602.512573 881.342407,588.124023 881.342407,573.367310 
	C895.559082,573.367310 910.063049,573.367310 924.995544,573.367310 
	C924.995544,587.616150 924.995544,601.872314 924.966492,616.600891 
	C924.937439,617.073364 925.006287,617.000183 925.042969,616.965820 
z"/>
<path fill="#000000" opacity="1.000000" stroke="none" 
	d="
M88.965759,572.957031 
	C88.931427,587.385315 88.931427,601.850281 88.931427,616.657593 
	C74.512619,616.657593 60.124058,616.657593 45.367310,616.657593 
	C45.367310,602.440857 45.367310,587.936890 45.367310,573.004456 
	C59.616207,573.004456 73.872330,573.004456 88.600876,573.033447 
	C89.073296,573.062500 89.000092,572.993713 88.965759,572.957031 
z"/>
<path fill="#000000" opacity="1.000000" stroke="none" 
	d="
M573.034302,353.043030 
	C573.068604,338.614716 573.068604,324.149719 573.068604,309.342407 
	C587.487305,309.342407 601.875854,309.342407 616.632690,309.342407 
	C616.632690,323.559143 616.632690,338.063110 616.632690,352.995514 
	C602.383850,352.995514 588.127686,352.995514 573.399170,352.966522 
	C572.926758,352.937531 572.999939,353.006348 573.034302,353.043030 
z"/>
<path fill="#000000" opacity="1.000000" stroke="none" 
	d="
M585.014160,881.000000 
	C592.496582,881.000000 599.501587,881.302429 606.458069,880.853027 
	C609.285950,880.670410 611.897095,883.469299 614.696289,881.198181 
	C615.463989,882.247314 616.887939,883.289124 616.899902,884.346802 
	C617.051208,897.751099 616.999390,911.157776 616.999390,924.780396 
	C602.263000,924.780396 587.878967,924.780396 573.247009,924.780396 
	C573.247009,910.319031 573.247009,895.934692 573.247009,881.000000 
	C576.985901,881.000000 580.751526,881.000000 585.014160,881.000000 
z"/>
<path fill="#FFFFFF" opacity="1.000000" stroke="none" 
	d="
M485.402161,617.037476 
	C484.951721,573.338074 484.973389,529.606201 484.962555,485.402191 
	C499.405060,484.930054 513.880066,484.930054 528.743530,484.930054 
	C528.743530,470.461243 528.743530,456.060211 528.743530,441.330627 
	C587.620728,441.330627 646.110168,441.330627 704.800110,441.330627 
	C704.800110,455.790344 704.800110,470.187134 704.800110,484.972809 
	C690.228149,484.972809 675.826965,484.972809 661.216003,484.972809 
	C661.216003,499.757538 661.216003,514.154419 661.216003,528.940552 
	C675.739197,528.940552 690.140015,528.940552 705.005005,528.940552 
	C705.005005,543.591614 705.005005,557.858704 705.037476,572.597839 
	C676.006775,573.048340 646.943665,573.026794 617.437988,572.566772 
	C616.995544,557.872314 616.995544,543.616150 616.995544,529.367310 
	C602.063049,529.367310 587.559082,529.367310 573.342407,529.367310 
	C573.342407,544.124023 573.342407,558.512573 573.342407,572.931519 
	C588.149658,572.931519 602.614624,572.931519 617.079590,572.931519 
	C617.079590,602.054382 617.079590,631.177307 617.079590,660.650024 
	C602.521851,660.650024 588.126892,660.650024 573.173340,660.650024 
	C573.173340,646.437256 573.173340,631.918335 573.173340,617.004944 
	C543.703125,617.004944 514.788696,617.004944 485.402161,617.037476 
z"/>
<path fill="#FFFFFF" opacity="1.000000" stroke="none" 
	d="
M596.999756,705.000000 
	C603.809204,705.000000 610.118774,705.000000 616.713379,705.000000 
	C616.713379,719.618713 616.713379,734.021851 616.713379,748.713379 
	C602.381287,748.713379 587.978149,748.713379 573.286621,748.713379 
	C573.286621,734.381287 573.286621,719.978149 573.286621,705.000000 
	C580.970886,705.000000 588.735413,705.000000 596.999756,705.000000 
z"/>
<path fill="#FFFFFF" opacity="1.000000" stroke="none" 
	d="
M704.965820,660.957031 
	C704.931519,675.385376 704.931519,689.850342 704.931519,704.657593 
	C690.512573,704.657593 676.124023,704.657593 661.367310,704.657593 
	C661.367310,690.440918 661.367310,675.936951 661.367310,661.004456 
	C675.616150,661.004456 689.872314,661.004456 704.600891,661.033508 
	C705.073364,661.062561 705.000183,660.993713 704.965820,660.957031 
z"/>
<path fill="#FFFFFF" opacity="1.000000" stroke="none" 
	d="
M441.402161,661.037476 
	C440.951752,646.671387 440.973419,632.272827 440.962585,617.402222 
	C455.328583,616.951782 469.727142,616.973450 484.597809,616.962585 
	C485.069946,631.376282 485.069946,645.822510 485.069946,661.004944 
	C470.591553,661.004944 456.232880,661.004944 441.402161,661.037476 
z"/>
<path fill="#FFFFFF" opacity="1.000000" stroke="none" 
	d="
M90.230125,89.030403 
	C163.335785,89.003929 235.957718,89.003929 308.789490,89.003929 
	C308.789490,162.443176 308.789490,235.513901 308.789490,308.792358 
	C235.551086,308.792358 162.480362,308.792358 89.000000,308.792358 
	C89.000000,307.169434 89.000000,305.715698 89.000000,304.261963 
	C89.000000,234.096710 88.995148,163.931458 89.031166,93.766220 
	C89.031975,92.196312 89.497589,90.626656 90.230125,89.030403 
M133.000000,235.500000 
	C133.000000,245.264526 133.000000,255.029053 133.000000,264.712036 
	C177.312332,264.712036 221.048157,264.712036 264.712036,264.712036 
	C264.712036,220.687653 264.712036,176.951843 264.712036,133.287964 
	C220.687683,133.287964 176.951859,133.287964 133.000000,133.287964 
	C133.000000,167.216965 133.000000,200.858490 133.000000,235.500000 
z"/>
<path fill="#FFFFFF" opacity="1.000000" stroke="none" 
	d="
M309.000000,914.971558 
	C309.000000,918.446960 309.000000,921.427612 309.000000,924.703369 
	C235.731033,924.703369 162.661392,924.703369 89.295700,924.703369 
	C89.295700,851.729248 89.295700,778.659546 89.295700,705.294800 
	C162.272614,705.294800 235.342285,705.294800 309.000000,705.294800 
	C309.000000,774.961792 309.000000,844.719299 309.000000,914.971558 
M133.000000,757.544067 
	C133.000000,798.633667 133.000000,839.723328 133.000000,880.696777 
	C177.341049,880.696777 221.077942,880.696777 264.695343,880.696777 
	C264.695343,836.656067 264.695343,792.919189 264.695343,749.306274 
	C220.653336,749.306274 176.916611,749.306274 133.000000,749.306274 
	C133.000000,751.927612 133.000000,754.244019 133.000000,757.544067 
z"/>
<path fill="#FFFFFF" opacity="1.000000" stroke="none" 
	d="
M907.998596,309.000000 
	C840.191223,309.000000 772.883667,309.000000 705.288208,309.000000 
	C705.288208,235.714706 705.288208,162.645676 705.288208,89.288132 
	C778.285339,89.288132 851.354370,89.288132 924.711914,89.288132 
	C924.711914,162.285385 924.711914,235.354431 924.711914,309.000000 
	C919.362183,309.000000 913.930298,309.000000 907.998596,309.000000 
M810.500000,133.000000 
	C790.071472,133.000000 769.642883,133.000000 749.286865,133.000000 
	C749.286865,177.310226 749.286865,221.046021 749.286865,264.713104 
	C793.310181,264.713104 837.046021,264.713104 880.713135,264.713104 
	C880.713135,220.689804 880.713135,176.954010 880.713135,133.000000 
	C857.451294,133.000000 834.475647,133.000000 810.500000,133.000000 
z"/>
<path fill="#FFFFFF" opacity="1.000000" stroke="none" 
	d="
M89.034241,529.042969 
	C89.068573,499.954498 89.068573,470.829346 89.068573,441.352112 
	C103.474045,441.352112 117.869255,441.352112 132.632690,441.352112 
	C132.632690,470.221924 132.632690,499.385620 132.632690,528.995544 
	C118.397255,528.995544 104.134407,528.995544 89.399124,528.966553 
	C88.926704,528.937500 88.999908,529.006287 89.034241,529.042969 
z"/>
<path fill="#FFFFFF" opacity="1.000000" stroke="none" 
	d="
M221.034073,573.042786 
	C221.068390,558.614502 221.068390,544.149536 221.068390,529.342346 
	C235.487518,529.342346 249.876083,529.342346 264.632751,529.342346 
	C264.632751,543.559143 264.632751,558.063171 264.632751,572.995544 
	C250.383713,572.995544 236.127579,572.995544 221.398987,572.966431 
	C220.926514,572.937317 220.999756,573.006104 221.034073,573.042786 
z"/>
<path fill="#FFFFFF" opacity="1.000000" stroke="none" 
	d="
M485.000000,112.999718 
	C485.000000,104.857323 485.000000,97.214798 485.000000,89.286835 
	C499.618256,89.286835 514.021423,89.286835 528.713135,89.286835 
	C528.713135,103.618248 528.713135,118.021370 528.713135,132.713150 
	C514.381714,132.713150 499.978607,132.713150 485.000000,132.713150 
	C485.000000,126.361549 485.000000,119.930573 485.000000,112.999718 
z"/>
<path fill="#000000" opacity="1.000000" stroke="none" 
	d="
M617.042969,572.965820 
	C602.614624,572.931519 588.149658,572.931519 573.342407,572.931519 
	C573.342407,558.512573 573.342407,544.124023 573.342407,529.367310 
	C587.559082,529.367310 602.063049,529.367310 616.995544,529.367310 
	C616.995544,543.616150 616.995544,557.872314 616.966492,572.600891 
	C616.937439,573.073364 617.006287,573.000183 617.042969,572.965820 
z"/>
<path fill="#000000" opacity="1.000000" stroke="none" 
	d="
M133.000000,235.000000 
	C133.000000,200.858490 133.000000,167.216965 133.000000,133.287964 
	C176.951859,133.287964 220.687683,133.287964 264.712036,133.287964 
	C264.712036,176.951843 264.712036,220.687653 264.712036,264.712036 
	C221.048157,264.712036 177.312332,264.712036 133.000000,264.712036 
	C133.000000,255.029053 133.000000,245.264526 133.000000,235.000000 
z"/>
<path fill="#000000" opacity="1.000000" stroke="none" 
	d="
M133.000000,757.052246 
	C133.000000,754.244019 133.000000,751.927612 133.000000,749.306274 
	C176.916611,749.306274 220.653336,749.306274 264.695343,749.306274 
	C264.695343,792.919189 264.695343,836.656067 264.695343,880.696777 
	C221.077942,880.696777 177.341049,880.696777 133.000000,880.696777 
	C133.000000,839.723328 133.000000,798.633667 133.000000,757.052246 
z"/>
<path fill="#000000" opacity="1.000000" stroke="none" 
	d="
M811.000000,133.000000 
	C834.475647,133.000000 857.451294,133.000000 880.713135,133.000000 
	C880.713135,176.954010 880.713135,220.689804 880.713135,264.713104 
	C837.046021,264.713104 793.310181,264.713104 749.286865,264.713104 
	C749.286865,221.046021 749.286865,177.310226 749.286865,133.000000 
	C769.642883,133.000000 790.071472,133.000000 811.000000,133.000000 
z"/>
</svg>